<?xml version="1.0" encoding="utf-8"?>
<!-- Generator: Adobe Illustrator 27.5.0, SVG Export Plug-In . SVG Version: 6.00 Build 0)  -->
<svg version="1.1" xmlns="http://www.w3.org/2000/svg" xmlns:xlink="http://www.w3.org/1999/xlink" x="0px" y="0px"
	 viewBox="0 0 750 500" style="enable-background:new 0 0 750 500;" xml:space="preserve">
<g id="Background_Complete">
	<path style="fill:#E0E0E0;" d="M454.788,295.375c4.241-16.09,20.392-26.037,36.148-31.385c15.757-5.348,32.797-7.961,46.692-17.117
		c10.033-6.611,17.742-16.224,27.446-23.309c21.782-15.902,53.426-16.8,76.075-2.158c22.649,14.642,34.821,43.864,29.263,70.255
		L454.788,295.375z"/>
	<path style="fill:#E0E0E0;" d="M319.578,293.939c-0.59-18.026-17.646-31.214-34.639-37.257
		c-16.993-6.043-35.646-7.86-51.228-16.942c-12.953-7.549-22.72-19.531-34.944-28.21c-20.423-14.501-47.702-18.853-71.623-11.426
		c0,0-38.695,14.536-42.637,50.443c-3.942,35.907-1.184,43.418-1.184,43.418L319.578,293.939z"/>
	<path style="fill:#F5F5F5;" d="M82.616,294.681c-6.883,21.088,11.747,42.951,32.622,50.456c20.875,7.505,43.833,5.765,65.686,9.577
		c8.259,1.44,17.483,4.611,20.587,12.398c3.832,9.613-3.938,19.774-11.824,26.475c-7.886,6.702-17.268,13.951-17.79,24.286
		c-0.451,8.938,6.449,16.93,14.608,20.608c8.159,3.677,17.383,3.954,26.329,4.171c57.733,1.397,115.466,2.795,173.199,4.192
		c56.598,1.37,113.224,2.74,169.819,1.282c11.417-0.294,23.254-0.808,33.427-5.999c10.172-5.191,18.187-16.433,15.929-27.628
		c-2.181-10.814-12.474-17.629-20.98-24.653s-16.515-18.139-12.163-28.276c4.004-9.327,15.753-11.774,25.657-13.993
		c18.944-4.244,37.066-12.128,53.085-23.094c9.172-6.278,20.881-20.132,18.772-31.045c-1.429-7.393-10.385-8.638-17.557-10.936
		c-7.171-2.298-14.882-1.972-22.405-1.622C441.549,289.62,270.687,285.939,82.616,294.681"/>
	
		<ellipse transform="matrix(0.7071 -0.7071 0.7071 0.7071 80.6649 402.8096)" style="fill:#EBEBEB;" cx="526.567" cy="104.034" rx="41.653" ry="41.653"/>
	<path style="fill:#F5F5F5;" d="M635.257,117.547c1.792-9.12-2.336-19.126-10.037-24.33s-18.524-5.302-26.318-0.238
		c-5.327,3.461-9.398,9.104-15.508,10.843c-6.981,1.987-14.384-1.768-21.601-1.005c-8.018,0.848-14.91,7.965-15.501,16.006
		L635.257,117.547z"/>
	<path style="fill:#EBEBEB;" d="M450.154,78.699c1.212-6.172-1.581-12.942-6.792-16.464c-5.211-3.522-12.535-3.588-17.809-0.161
		c-3.605,2.342-6.36,6.161-10.494,7.337c-4.724,1.344-9.733-1.196-14.617-0.68c-5.426,0.574-10.09,5.39-10.489,10.831
		L450.154,78.699z"/>
	<g>
		<path style="fill:#E0E0E0;" d="M229.217,126.58c0.001,0.018-0.238,0.052-0.693,0.1c-0.453,0.062-1.127,0.08-1.984,0.216
			c-1.718,0.205-4.193,0.657-7.145,1.573c-5.899,1.759-13.661,5.97-19.991,13.006c-0.276,0.304-0.55,0.607-0.805,0.888l-0.267,0.294
			l-0.167-0.356c-0.971-2.07-2.094-4-3.313-5.769c-1.245-1.753-2.597-3.326-3.977-4.732c-2.815-2.757-5.771-4.784-8.441-6.08
			c-2.672-1.297-4.996-1.984-6.623-2.298c-1.623-0.338-2.543-0.42-2.536-0.476c0.002-0.018,0.231-0.005,0.668,0.034
			c0.434,0.057,1.089,0.066,1.906,0.247c1.651,0.256,4.016,0.896,6.742,2.167c2.724,1.27,5.744,3.292,8.617,6.069
			c1.409,1.415,2.788,3.004,4.057,4.777c1.243,1.79,2.386,3.745,3.372,5.844l-0.433-0.062c0.257-0.284,0.534-0.59,0.813-0.898
			c6.398-7.113,14.29-11.325,20.269-13.008c2.993-0.879,5.496-1.278,7.23-1.423c0.864-0.106,1.544-0.091,2-0.12
			C228.976,126.561,229.216,126.562,229.217,126.58z"/>
	</g>
	<g>
		<path style="fill:#E0E0E0;" d="M278.069,101.322c-0.026,0.052-0.645-0.293-1.836-0.725c-1.184-0.438-2.958-0.958-5.209-1.141
			c-2.243-0.177-4.973,0.022-7.794,0.977c-1.408,0.473-2.826,1.155-4.166,2.054c-0.675,0.437-1.335,0.974-2.133,1.363
			c-0.785,0.403-1.768,0.564-2.668,0.346c-1.817-0.434-3.117-1.665-4.489-2.486c-1.365-0.865-2.793-1.52-4.201-1.999
			c-2.828-0.939-5.551-1.18-7.799-1.046c-2.256,0.127-4.046,0.582-5.249,0.97c-1.208,0.382-1.845,0.69-1.868,0.638
			c-0.008-0.016,0.147-0.101,0.449-0.249c0.302-0.148,0.748-0.368,1.353-0.58c1.194-0.451,2.997-0.969,5.291-1.146
			c2.285-0.184,5.069,0.021,7.973,0.958c1.446,0.478,2.915,1.14,4.322,2.022c1.413,0.851,2.708,2.033,4.328,2.409
			c0.8,0.188,1.611,0.058,2.332-0.303c0.729-0.351,1.378-0.87,2.076-1.321c1.385-0.92,2.847-1.611,4.296-2.084
			c2.903-0.954,5.698-1.117,7.979-0.889c2.291,0.234,4.077,0.818,5.252,1.319c0.595,0.239,1.031,0.478,1.325,0.642
			C277.928,101.213,278.078,101.306,278.069,101.322z"/>
	</g>
	<g>
		<path style="fill:#E0E0E0;" d="M144.221,127.62c-0.01,0.137-2.215-0.668-5.787-0.159c-1.765,0.265-3.838,0.906-5.847,2.144
			c-1.004,0.616-1.977,1.394-2.853,2.325c-0.444,0.457-0.861,0.992-1.416,1.44c-0.543,0.457-1.293,0.764-2.039,0.754
			c-1.507-0.015-2.734-0.743-3.939-1.135c-1.207-0.427-2.426-0.682-3.598-0.804c-2.351-0.228-4.5,0.064-6.215,0.56
			c-3.463,1.011-5.178,2.593-5.242,2.473c-0.011-0.014,0.091-0.11,0.298-0.281c0.206-0.171,0.511-0.424,0.941-0.699
			c0.843-0.567,2.149-1.296,3.898-1.846c1.741-0.553,3.941-0.894,6.366-0.685c1.209,0.113,2.47,0.365,3.721,0.801
			c1.251,0.411,2.463,1.093,3.764,1.096c0.643,0.003,1.232-0.235,1.721-0.637c0.497-0.396,0.907-0.912,1.37-1.387
			c0.914-0.962,1.929-1.759,2.972-2.384c2.089-1.257,4.234-1.876,6.048-2.1c1.822-0.221,3.313-0.079,4.313,0.108
			c0.504,0.083,0.884,0.194,1.141,0.273C144.094,127.554,144.226,127.602,144.221,127.62z"/>
	</g>
</g>
<g id="Background_Simple" style="display:none;">
	<path style="display:inline;fill:#F5F5F5;" d="M392.674,195.65c-17.601,6.762-37.207-4.925-49.129-19.533
		c-11.922-14.608-19.752-32.532-33.507-45.429c-17.998-16.875-45.517-22.819-68.876-14.876
		c-23.358,7.943-41.55,29.429-45.531,53.778c-2.87,17.552,1.25,35.723,8.915,51.773c8.517,17.834,21.225,33.355,34.196,48.192
		c12.041,13.772,26.527,25.211,42.702,33.757c19.539,10.323,35.744,17.794,63.481,22.283c55.34,8.956,75.899,15.649,133.404-3.333
		c19.088-6.301,37.039-16.023,50.818-28.964c9.878-9.276,18.016-22.229,18.008-50.078c-0.005-15.883-11.112-36.023-22.494-47.101
		c-17.157-16.7-44.104-17.98-67.725-14.07C433.314,185.959,416.556,197.356,392.674,195.65"/>
</g>
<g id="Floor">
	<g>
		<path style="fill:#263238;" d="M674.879,453.861c0,0.144-134.271,0.26-299.865,0.26c-165.651,0-299.894-0.117-299.894-0.26
			c0-0.144,134.243-0.26,299.894-0.26C540.608,453.6,674.879,453.717,674.879,453.861z"/>
	</g>
</g>
<g id="Hearts">
	<g>
		<path style="fill:#E8505B;" d="M402.297,87.007c-0.561-1.449-2.287-1.987-3.687-1.451c-1.4,0.536-2.224,1.402-2.877,2.883
			c0.171-1.61-0.202-2.797-1.156-3.961c-0.954-1.165-2.732-1.564-3.948-0.59c-0.713,0.571-1.135,1.514-1.26,2.457
			c-0.124,0.942-0.118,1.957,0.258,2.784c1.34,2.945,2.307,3.663,4.397,6.06c2.988-1.039,3.914-1.251,6.53-3.139
			c0.734-0.53,1.243-1.407,1.605-2.286C402.521,88.884,402.627,87.857,402.297,87.007z"/>
		<path style="fill:#E8505B;" d="M382.925,73.019c-0.548-0.68-1.564-0.674-2.223-0.148c-0.658,0.526-0.951,1.131-1.049,2.036
			c-0.184-0.892-0.586-1.463-1.296-1.924c-0.71-0.461-1.73-0.371-2.215,0.358c-0.284,0.428-0.35,1.005-0.255,1.531
			c0.094,0.526,0.271,1.068,0.613,1.447c1.22,1.349,1.861,1.568,3.39,2.494c1.423-1.067,1.883-1.338,2.961-2.796
			c0.303-0.409,0.426-0.966,0.469-1.498C383.366,73.987,383.247,73.419,382.925,73.019z"/>
		<path style="fill:#E8505B;" d="M377.433,91.16c-2.416-2.594-6.53-2.271-9.041,0.05c-2.511,2.321-3.522,4.856-3.652,8.548
			c-1.003-3.556-2.798-5.754-5.807-7.412c-3.009-1.659-7.114-0.997-8.864,2.098c-1.027,1.815-1.122,4.17-0.586,6.272
			c0.536,2.102,1.408,4.245,2.906,5.679c5.335,5.104,7.993,5.805,14.451,9.111c5.449-4.734,7.231-5.968,11.172-12.185
			c1.106-1.746,1.442-4.034,1.464-6.203C379.498,94.948,378.851,92.682,377.433,91.16z"/>
		<path style="opacity:0.3;fill:#FFFFFF;" d="M402.297,87.007c-0.561-1.449-2.287-1.987-3.687-1.451
			c-1.4,0.536-2.224,1.402-2.877,2.883c0.171-1.61-0.202-2.797-1.156-3.961c-0.954-1.165-2.732-1.564-3.948-0.59
			c-0.713,0.571-1.135,1.514-1.26,2.457c-0.124,0.942-0.118,1.957,0.258,2.784c1.34,2.945,2.307,3.663,4.397,6.06
			c2.988-1.039,3.914-1.251,6.53-3.139c0.734-0.53,1.243-1.407,1.605-2.286C402.521,88.884,402.627,87.857,402.297,87.007z"/>
		<path style="opacity:0.7;fill:#FFFFFF;" d="M382.925,73.019c-0.548-0.68-1.564-0.674-2.223-0.148
			c-0.658,0.526-0.951,1.131-1.049,2.036c-0.184-0.892-0.586-1.463-1.296-1.924c-0.71-0.461-1.73-0.371-2.215,0.358
			c-0.284,0.428-0.35,1.005-0.255,1.531c0.094,0.526,0.271,1.068,0.613,1.447c1.22,1.349,1.861,1.568,3.39,2.494
			c1.423-1.067,1.883-1.338,2.961-2.796c0.303-0.409,0.426-0.966,0.469-1.498C383.366,73.987,383.247,73.419,382.925,73.019z"/>
	</g>
</g>
<g id="Starts">
	<polygon style="fill:#455A64;" points="446.638,145.108 449.112,147.78 452.715,147.258 450.938,150.436 452.548,153.702 
		448.977,152.993 446.368,155.534 445.938,151.919 442.716,150.223 446.022,148.697 	"/>
	<polygon style="fill:#455A64;" points="467.537,172.735 468.011,175.01 470.153,175.909 468.136,177.063 467.943,179.379 
		466.223,177.817 463.96,178.349 464.914,176.23 463.709,174.243 466.019,174.495 	"/>
	<polygon style="fill:#455A64;" points="289.07,223.387 290.775,226.843 294.589,227.397 291.829,230.087 292.481,233.884 
		289.07,232.091 285.659,233.884 286.311,230.087 283.551,227.397 287.365,226.843 	"/>
</g>
<g id="Railing">
	<polygon style="fill:#263238;" points="622.329,276.415 122.816,276.415 122.816,281.633 136.874,281.633 136.874,453.28 
		138.999,453.28 138.999,281.633 176.038,281.633 176.038,453.28 178.162,453.28 178.162,281.633 215.201,281.633 215.201,453.28 
		217.325,453.28 217.325,281.633 254.364,281.633 254.364,453.28 256.488,453.28 256.488,281.633 293.527,281.633 293.527,453.28 
		295.651,453.28 295.651,281.633 332.69,281.633 332.69,453.28 334.814,453.28 334.814,281.633 371.853,281.633 371.853,453.28 
		373.977,453.28 373.977,281.633 411.016,281.633 411.016,453.28 413.14,453.28 413.14,281.633 450.179,281.633 450.179,453.28 
		452.303,453.28 452.303,281.633 489.342,281.633 489.342,453.28 491.466,453.28 491.466,281.633 528.505,281.633 528.505,453.28 
		530.629,453.28 530.629,281.633 567.668,281.633 567.668,453.28 569.792,453.28 569.792,281.633 606.831,281.633 606.831,453.28 
		608.955,453.28 608.955,281.633 622.329,281.633 	"/>
</g>
<g id="Character_2">
	<g>
		<g>
			<g>
				<g>
					<g>
						<g>
							<g>
								<g>
									<path style="fill:#FFBE9D;" d="M413.916,178.542l-19.267,1.254c-0.442-2.207-1.537-10.832-1.537-10.832
										s-8.104-0.077-9.356-7.986c-1.252-7.909-2.53-26.301-2.53-26.301l0,0c8.597-5.278,19.377-5.49,28.175-0.553l1.306,0.733
										L413.916,178.542z"/>
								</g>
							</g>
							<g>
								<g>
									<g>
										<path style="fill:#263238;" d="M385.888,148.32c0.324-0.555,0.136-1.267-0.419-1.59c-0.555-0.324-1.267-0.136-1.59,0.419
											c-0.324,0.555-0.136,1.267,0.419,1.59C384.853,149.063,385.565,148.875,385.888,148.32z"/>
									</g>
								</g>
								<g>
									<g>
										<g>
											<path style="fill:#263238;" d="M383.64,147.608c0.161,0.094,0.729-0.719,1.778-1.057
												c1.045-0.353,1.985-0.036,2.058-0.207c0.038-0.078-0.157-0.279-0.57-0.427c-0.407-0.148-1.044-0.214-1.697,0.002
												c-0.653,0.215-1.127,0.647-1.365,1.007C383.601,147.291,383.564,147.568,383.64,147.608z"/>
										</g>
									</g>
								</g>
							</g>
							<g>
								<g>
									<g>
										<path style="fill:#263238;" d="M395.287,145.742c-0.428,0.479-0.387,1.214,0.092,1.642
											c0.479,0.428,1.214,0.387,1.642-0.092c0.428-0.479,0.387-1.214-0.092-1.642
											C396.449,145.223,395.715,145.264,395.287,145.742z"/>
									</g>
								</g>
								<g>
									<g>
										<g>
											<path style="fill:#263238;" d="M394.936,146.45c0.16,0.097,0.74-0.708,1.795-1.028c1.051-0.336,1.985-0.003,2.061-0.174
												c0.039-0.077-0.152-0.281-0.563-0.436c-0.404-0.155-1.041-0.23-1.697-0.026c-0.656,0.204-1.137,0.628-1.381,0.985
												C394.901,146.133,394.86,146.409,394.936,146.45z"/>
										</g>
									</g>
								</g>
							</g>
							<g>
								<g>
									<g>
										<path style="fill:#263238;" d="M391.778,155.373c-0.005-0.086-0.7-0.125-1.819-0.117c-0.29,0.011-0.523-0.021-0.566-0.172
											c-0.076-0.165-0.01-0.486,0.085-0.847c0.176-0.763,0.354-1.534,0.54-2.343c0.732-3.333,1.188-6.064,1.019-6.101
											c-0.169-0.037-0.9,2.634-1.631,5.966c-0.17,0.812-0.331,1.588-0.492,2.354c-0.057,0.345-0.199,0.76,0.017,1.209
											c0.113,0.224,0.363,0.362,0.558,0.384c0.197,0.03,0.358,0.006,0.496-0.007
											C391.097,155.577,391.783,155.459,391.778,155.373z"/>
									</g>
								</g>
							</g>
							<g>
								<g>
									<path style="fill:#FFFFFF;" d="M395.499,156.061c-1.991,1.141-5.125,2.335-5.125,2.335s1.571,1.851,3.733,0.682
										C396.352,157.865,395.499,156.061,395.499,156.061z"/>
								</g>
							</g>
							<g>
								<g>
									<path style="fill:#EB996E;" d="M393.082,168.852c0,0,5.067-0.322,9.901-4.44c0,0-1.611,6.058-9.62,6.496L393.082,168.852z"
										/>
								</g>
							</g>
						</g>
					</g>
					<g>
						<g>
							<path style="fill:#455A64;" d="M382.239,132.562c-1.83,0.099-3.477-1.819-3.102-3.613c0.375-1.794,2.652-2.892,4.289-2.069
								c-0.965-0.773-1.957-1.579-2.523-2.678c-0.566-1.099-0.59-2.578,0.28-3.455c0.857-0.865,2.274-0.875,3.43-0.492
								c1.752,0.581,3.206,1.899,4.993,2.359c1.808,0.465,3.706-0.003,5.571-0.076c2.062-0.082,4.187,0.353,5.898,1.506
								c1.711,1.153,2.954,3.081,3.009,5.144c2.57-0.539,5.449-0.816,7.639,0.634c1.847,1.223,2.805,3.474,2.995,5.681
								c0.19,2.207-0.55,4.378-1.022,6.543l0-0.007c-0.285,1.263-0.657,1.728-0.657,1.728l-0.492,5.79l-3.553,0.227l-0.761-11.911
								c0,0-0.06-5.037-4.334-4.24c-4.274,0.797-9.728,6.146-18.224,5.62c-1.376-0.085-2.805-0.12-4.005-0.797
								c-1.201-0.677-2.131-1.956-2.086-3.334C379.629,133.744,380.868,132.425,382.239,132.562z"/>
						</g>
					</g>
					<g>
						<g>
							<g>
								<path style="fill:#FFBE9D;" d="M411.842,142.52c0.167-0.08,5.841-1.303,5.863,5.515c0.022,6.818-6.871,4.585-6.884,4.39
									C410.809,152.23,411.842,142.52,411.842,142.52z"/>
							</g>
						</g>
						<g>
							<g>
								<g>
									<path style="fill:#EB996E;" d="M412.903,150.026c0.03-0.022,0.119,0.083,0.32,0.174c0.196,0.089,0.533,0.15,0.888,0.015
										c0.719-0.267,1.322-1.412,1.351-2.641c0.016-0.621-0.116-1.211-0.338-1.7c-0.21-0.498-0.534-0.845-0.896-0.909
										c-0.361-0.082-0.617,0.136-0.7,0.328c-0.091,0.191-0.047,0.327-0.083,0.339c-0.019,0.017-0.147-0.113-0.093-0.395
										c0.028-0.135,0.107-0.296,0.267-0.428c0.163-0.134,0.404-0.202,0.656-0.176c0.526,0.035,1.001,0.517,1.244,1.053
										c0.272,0.539,0.435,1.202,0.418,1.899c-0.039,1.374-0.738,2.662-1.723,2.95c-0.479,0.126-0.88-0.017-1.087-0.177
										C412.915,150.191,412.879,150.038,412.903,150.026z"/>
								</g>
							</g>
						</g>
					</g>
				</g>
				<g>
					<path style="fill:#263238;" d="M398.357,143.72c-0.082,0.129-1.067-0.459-2.417-0.468c-1.35-0.039-2.355,0.513-2.432,0.381
						c-0.101-0.095,0.909-0.938,2.441-0.902C397.481,142.75,398.461,143.628,398.357,143.72z"/>
				</g>
				<g>
					<path style="fill:#263238;" d="M387.214,144.635c-0.018,0.146-0.882,0.151-1.93,0.21c-1.049,0.053-1.908,0.141-1.941-0.002
						c-0.035-0.135,0.811-0.461,1.914-0.518C386.358,144.264,387.234,144.496,387.214,144.635z"/>
				</g>
			</g>
			<g>
				<g>
					<g>
						<g>
							<g>
								<g>
									<path style="fill:#E8505B;" d="M411.557,452.138l-0.064-6.977l18.657,0.019l0.261,10.884l-1.149,0.115
										c-5.113,0.466-26.032,2.011-29.494,1.094C395.908,456.251,411.557,452.138,411.557,452.138z"/>
								</g>
							</g>
						</g>
						<g style="opacity:0.5;">
							<g>
								<g>
									<path style="fill:#FFFFFF;" d="M423.674,456.158c0.209-1.561,1.021-3.033,2.229-4.043c1.208-1.01,2.719-1.574,4.292-1.504
										l0.188,5.189L423.674,456.158z"/>
								</g>
							</g>
						</g>
					</g>
					<g>
						<g>
							<g>
								<path style="opacity:0.5;fill:#FFFFFF;" d="M403.92,454.423c0,0-5.472,1.791-4.75,2.677
									c0.722,0.886,21.921,0.121,31.241-1.035l-0.045-0.414l-24.719,1.103C405.648,456.755,405.003,454.429,403.92,454.423z"/>
							</g>
						</g>
					</g>
					<g>
						<g>
							<g>
								<g>
									<path style="fill:#263238;" d="M430.658,455.629c0.001,0.008-0.109,0.023-0.318,0.046
										c-0.275,0.027-0.576,0.056-0.915,0.088c-0.916,0.073-2.041,0.162-3.369,0.267c-2.846,0.206-6.783,0.437-11.135,0.598
										c-4.353,0.16-8.296,0.219-11.15,0.223c-1.332-0.007-2.461-0.013-3.38-0.018c-0.341-0.008-0.643-0.014-0.919-0.021
										c-0.21-0.007-0.32-0.015-0.32-0.023c0-0.008,0.11-0.016,0.32-0.023c0.276-0.007,0.578-0.014,0.919-0.021
										c0.918-0.014,2.046-0.032,3.378-0.053c2.852-0.045,6.793-0.129,11.143-0.289c4.349-0.161,8.285-0.367,11.133-0.532
										c1.33-0.077,2.457-0.142,3.373-0.196c0.341-0.017,0.642-0.033,0.918-0.046
										C430.547,455.622,430.657,455.622,430.658,455.629z"/>
								</g>
							</g>
						</g>
					</g>
					<g>
						<g>
							<g>
								<g>
									<path style="fill:#263238;" d="M405.663,457.043c-0.068,0.011-0.15-0.793-0.688-1.588c-0.525-0.805-1.234-1.192-1.197-1.25
										c0.011-0.056,0.82,0.265,1.384,1.126C405.737,456.185,405.72,457.054,405.663,457.043z"/>
								</g>
							</g>
						</g>
					</g>
					<g>
						<g>
							<g>
								<g>
									<path style="fill:#263238;" d="M411.041,454.066c-0.051,0.035-0.325-0.274-0.611-0.691
										c-0.286-0.417-0.477-0.784-0.425-0.819c0.051-0.035,0.325,0.274,0.611,0.691
										C410.902,453.664,411.093,454.031,411.041,454.066z"/>
								</g>
							</g>
						</g>
					</g>
					<g>
						<g>
							<g>
								<g>
									<path style="fill:#263238;" d="M412.516,453.217c-0.04,0.048-0.34-0.137-0.67-0.413c-0.33-0.276-0.566-0.538-0.526-0.586
										c0.04-0.048,0.34,0.137,0.67,0.413C412.32,452.907,412.556,453.169,412.516,453.217z"/>
								</g>
							</g>
						</g>
					</g>
					<g>
						<g>
							<g>
								<g>
									<path style="fill:#263238;" d="M413.403,451.43c0.003,0.062-0.429,0.133-0.964,0.159c-0.535,0.025-0.972-0.005-0.975-0.067
										c-0.003-0.062,0.429-0.133,0.964-0.158C412.964,451.338,413.4,451.368,413.403,451.43z"/>
								</g>
							</g>
						</g>
					</g>
					<g>
						<g>
							<g>
								<g>
									<path style="fill:#263238;" d="M413.685,450.182c0.023,0.055-0.442,0.285-1.07,0.353c-0.628,0.072-1.132-0.05-1.122-0.108
										c0.008-0.065,0.5-0.046,1.096-0.115C413.186,450.248,413.663,450.121,413.685,450.182z"/>
								</g>
							</g>
						</g>
					</g>
					<g>
						<g>
							<g>
								<g>
									<path style="fill:#263238;" d="M410.353,452.469c0.002,0.025-0.454,0.098-1.193,0.036c-0.369-0.031-0.807-0.102-1.28-0.234
										c-0.236-0.074-0.481-0.128-0.738-0.273c-0.121-0.075-0.256-0.18-0.309-0.36c-0.056-0.177,0.033-0.381,0.164-0.483
										c1.119-0.632,2.284-0.032,2.729,0.542c0.244,0.292,0.361,0.582,0.418,0.782c0.055,0.202,0.056,0.319,0.043,0.321
										c-0.042,0.017-0.098-0.467-0.58-0.998c-0.238-0.26-0.593-0.509-1.043-0.625c-0.426-0.11-1.027-0.122-1.418,0.148
										c-0.184,0.147-0.103,0.367,0.113,0.485c0.201,0.12,0.458,0.188,0.681,0.262c0.457,0.139,0.881,0.225,1.24,0.275
										C409.897,452.447,410.352,452.432,410.353,452.469z"/>
								</g>
							</g>
						</g>
					</g>
					<g>
						<g>
							<g>
								<g>
									<path style="fill:#263238;" d="M410.046,452.539c-0.016,0.013-0.203-0.285-0.167-0.824c0.02-0.264,0.105-0.58,0.294-0.883
										c0.201-0.272,0.459-0.647,0.971-0.644c0.278,0.026,0.424,0.335,0.388,0.538c-0.014,0.21-0.102,0.392-0.184,0.54
										c-0.167,0.304-0.359,0.553-0.537,0.742c-0.361,0.379-0.651,0.53-0.665,0.508c-0.022-0.028,0.23-0.223,0.545-0.612
										c0.157-0.195,0.326-0.441,0.474-0.734c0.155-0.258,0.251-0.715-0.051-0.758c-0.3-0.018-0.594,0.29-0.767,0.535
										c-0.178,0.265-0.272,0.547-0.31,0.788C409.963,452.223,410.085,452.529,410.046,452.539z"/>
								</g>
							</g>
						</g>
					</g>
					<g>
						<g>
							<g>
								<g>
									<path style="fill:#263238;" d="M430.096,450.563c-0.003,0.042-0.534-0.031-1.369,0.098
										c-0.828,0.122-1.972,0.505-2.948,1.341c-0.976,0.838-1.528,1.911-1.775,2.71c-0.255,0.806-0.263,1.342-0.305,1.338
										c-0.014,0-0.025-0.134-0.014-0.374c0.011-0.241,0.055-0.59,0.166-1.009c0.214-0.833,0.764-1.962,1.781-2.836
										c1.018-0.872,2.218-1.244,3.074-1.328c0.431-0.046,0.782-0.037,1.022-0.011
										C429.967,450.518,430.097,450.549,430.096,450.563z"/>
								</g>
							</g>
						</g>
					</g>
					<g>
						<g>
							<g>
								<g>
									<path style="fill:#263238;" d="M421.272,454.432c0.01,0.058-1.193,0.3-2.701,0.367c-1.508,0.071-2.728-0.061-2.723-0.12
										c0.004-0.065,1.219-0.035,2.713-0.105C420.055,454.508,421.263,454.367,421.272,454.432z"/>
								</g>
							</g>
						</g>
					</g>
					<g>
						<g>
							<g>
								<g>
									<path style="fill:#263238;" d="M424.911,454.296c0.047,0.044-0.09,0.26-0.204,0.543c-0.118,0.281-0.173,0.532-0.237,0.53
										c-0.06,0.002-0.106-0.29,0.028-0.615C424.632,454.427,424.869,454.252,424.911,454.296z"/>
								</g>
							</g>
						</g>
					</g>
					<g>
						<g>
							<g>
								<g>
									<path style="fill:#263238;" d="M426.221,452.539c0.046,0.042-0.067,0.24-0.252,0.441c-0.185,0.202-0.372,0.331-0.418,0.289
										c-0.046-0.042,0.067-0.24,0.252-0.441C425.988,452.627,426.175,452.497,426.221,452.539z"/>
								</g>
							</g>
						</g>
					</g>
					<g>
						<g>
							<g>
								<g>
									<path style="fill:#263238;" d="M428.155,451.689c-0.011,0.064-0.258,0.07-0.527,0.176
										c-0.272,0.099-0.461,0.258-0.511,0.218c-0.051-0.032,0.096-0.302,0.431-0.428
										C427.883,451.526,428.172,451.631,428.155,451.689z"/>
								</g>
							</g>
						</g>
					</g>
					<g>
						<g>
							<g>
								<g>
									<path style="fill:#263238;" d="M429.539,451.27c0.025,0.057-0.079,0.156-0.231,0.222c-0.152,0.065-0.295,0.072-0.32,0.015
										c-0.025-0.057,0.079-0.156,0.231-0.222C429.371,451.22,429.514,451.213,429.539,451.27z"/>
								</g>
							</g>
						</g>
					</g>
				</g>
			</g>
			<g>
				<g>
					<g>
						<g>
							<g>
								<g>
									<path style="fill:#E8505B;" d="M394.276,447.686l-1.514-6.811l18.252-3.863l2.52,10.591l-1.1,0.351
										c-4.904,1.52-25.044,7.383-28.621,7.207C379.825,454.964,394.276,447.686,394.276,447.686z"/>
								</g>
							</g>
						</g>
						<g style="opacity:0.5;">
							<g>
								<g>
									<path style="fill:#FFFFFF;" d="M406.965,449.096c-0.12-1.57,0.367-3.179,1.339-4.418c0.971-1.239,2.332-2.105,3.885-2.364
										l1.264,5.036L406.965,449.096z"/>
								</g>
							</g>
						</g>
					</g>
					<g>
						<g>
							<g>
								<path style="opacity:0.5;fill:#FFFFFF;" d="M387.282,451.509c0,0-4.98,2.891-4.089,3.607
									c0.891,0.716,21.466-4.443,30.342-7.513l-0.13-0.396l-23.948,6.223C389.457,453.431,388.342,451.29,387.282,451.509z"/>
							</g>
						</g>
					</g>
					<g>
						<g>
							<g>
								<g>
									<path style="fill:#263238;" d="M413.685,447.126c0.002,0.007-0.102,0.046-0.301,0.111
										c-0.263,0.083-0.551,0.174-0.876,0.277c-0.88,0.262-1.963,0.583-3.24,0.962c-2.741,0.793-6.543,1.839-10.766,2.902
										c-4.225,1.062-8.069,1.94-10.86,2.539c-1.305,0.27-2.41,0.499-3.31,0.685c-0.335,0.063-0.632,0.12-0.903,0.171
										c-0.207,0.037-0.316,0.052-0.318,0.045c-0.002-0.008,0.105-0.038,0.309-0.089c0.268-0.064,0.562-0.133,0.894-0.212
										c0.895-0.205,1.995-0.457,3.293-0.755c2.781-0.638,6.617-1.54,10.839-2.601c4.221-1.063,8.027-2.083,10.778-2.837
										c1.285-0.352,2.373-0.651,3.259-0.893c0.329-0.088,0.621-0.165,0.888-0.236
										C413.575,447.142,413.683,447.118,413.685,447.126z"/>
								</g>
							</g>
						</g>
					</g>
					<g>
						<g>
							<g>
								<g>
									<path style="fill:#263238;" d="M389.532,453.709c-0.064,0.025-0.312-0.744-1.004-1.41
										c-0.681-0.678-1.455-0.909-1.431-0.974c-0.001-0.057,0.857,0.089,1.589,0.813
										C389.426,452.854,389.59,453.709,389.532,453.709z"/>
								</g>
							</g>
						</g>
					</g>
					<g>
						<g>
							<g>
								<g>
									<path style="fill:#263238;" d="M394.173,449.678c-0.043,0.045-0.375-0.201-0.741-0.549
										c-0.367-0.348-0.629-0.667-0.587-0.712c0.043-0.045,0.375,0.201,0.742,0.549
										C393.953,449.314,394.216,449.633,394.173,449.678z"/>
								</g>
							</g>
						</g>
					</g>
					<g>
						<g>
							<g>
								<g>
									<path style="fill:#263238;" d="M395.439,448.541c-0.029,0.055-0.361-0.064-0.741-0.265
										c-0.38-0.201-0.665-0.409-0.636-0.464c0.029-0.055,0.361,0.063,0.742,0.264
										C395.183,448.278,395.467,448.486,395.439,448.541z"/>
								</g>
							</g>
						</g>
					</g>
					<g>
						<g>
							<g>
								<g>
									<path style="fill:#263238;" d="M395.934,446.609c0.016,0.06-0.392,0.219-0.91,0.356c-0.518,0.136-0.952,0.198-0.967,0.138
										c-0.016-0.06,0.392-0.219,0.91-0.356C395.486,446.61,395.919,446.548,395.934,446.609z"/>
								</g>
							</g>
						</g>
					</g>
					<g>
						<g>
							<g>
								<g>
									<path style="fill:#263238;" d="M395.95,445.33c0.034,0.049-0.373,0.371-0.973,0.568c-0.599,0.201-1.117,0.187-1.12,0.127
										c-0.006-0.065,0.48-0.15,1.048-0.341C395.477,445.497,395.916,445.274,395.95,445.33z"/>
								</g>
							</g>
						</g>
					</g>
					<g>
						<g>
							<g>
								<g>
									<path style="fill:#263238;" d="M393.167,448.259c0.008,0.024-0.423,0.19-1.16,0.283c-0.367,0.047-0.811,0.068-1.301,0.037
										c-0.246-0.024-0.497-0.025-0.779-0.114c-0.134-0.048-0.288-0.123-0.377-0.288c-0.091-0.161-0.047-0.38,0.06-0.507
										c0.963-0.851,2.228-0.506,2.782-0.037c0.299,0.235,0.474,0.494,0.572,0.678c0.096,0.186,0.121,0.3,0.108,0.305
										c-0.037,0.025-0.193-0.436-0.775-0.855c-0.287-0.205-0.686-0.375-1.15-0.395c-0.439-0.019-1.03,0.095-1.357,0.44
										c-0.15,0.182-0.024,0.381,0.211,0.451c0.221,0.075,0.487,0.088,0.721,0.115c0.476,0.041,0.909,0.036,1.27,0.011
										C392.717,448.333,393.159,448.224,393.167,448.259z"/>
								</g>
							</g>
						</g>
					</g>
					<g>
						<g>
							<g>
								<g>
									<path style="fill:#263238;" d="M392.882,448.392c-0.013,0.017-0.258-0.236-0.335-0.771
										c-0.036-0.263-0.018-0.59,0.104-0.925c0.14-0.308,0.314-0.728,0.816-0.832c0.277-0.033,0.485,0.24,0.491,0.445
										c0.03,0.208-0.018,0.405-0.067,0.567c-0.1,0.332-0.236,0.616-0.371,0.838c-0.274,0.446-0.527,0.654-0.545,0.635
										c-0.027-0.023,0.179-0.266,0.406-0.712c0.113-0.223,0.227-0.499,0.311-0.816c0.098-0.285,0.096-0.751-0.207-0.731
										c-0.297,0.045-0.52,0.408-0.639,0.683c-0.119,0.296-0.153,0.591-0.139,0.835
										C392.735,448.1,392.918,448.374,392.882,448.392z"/>
								</g>
							</g>
						</g>
					</g>
					<g>
						<g>
							<g>
								<g>
									<path style="fill:#263238;" d="M412.081,442.287c0.006,0.042-0.529,0.08-1.319,0.381c-0.784,0.292-1.823,0.904-2.605,1.926
										c-0.78,1.023-1.097,2.187-1.172,3.02c-0.081,0.841,0.022,1.367-0.02,1.372c-0.013,0.003-0.053-0.125-0.092-0.363
										c-0.04-0.238-0.069-0.588-0.047-1.021c0.036-0.859,0.339-2.078,1.152-3.145c0.815-1.065,1.911-1.678,2.73-1.939
										c0.412-0.134,0.757-0.199,0.997-0.223C411.946,442.27,412.08,442.273,412.081,442.287z"/>
								</g>
							</g>
						</g>
					</g>
					<g>
						<g>
							<g>
								<g>
									<path style="fill:#263238;" d="M404.256,447.908c0.022,0.055-1.104,0.542-2.565,0.921c-1.461,0.383-2.681,0.508-2.689,0.45
										c-0.01-0.065,1.185-0.288,2.632-0.668C403.082,448.236,404.233,447.846,404.256,447.908z"/>
								</g>
							</g>
						</g>
					</g>
					<g>
						<g>
							<g>
								<g>
									<path style="fill:#263238;" d="M407.787,447.017c0.055,0.033-0.034,0.273-0.086,0.574c-0.057,0.3-0.058,0.556-0.121,0.568
										c-0.058,0.014-0.164-0.261-0.1-0.608C407.541,447.204,407.737,446.983,407.787,447.017z"/>
								</g>
							</g>
						</g>
					</g>
					<g>
						<g>
							<g>
								<g>
									<path style="fill:#263238;" d="M408.703,445.027c0.053,0.032-0.016,0.248-0.155,0.484c-0.139,0.236-0.295,0.401-0.349,0.37
										c-0.053-0.032,0.016-0.248,0.155-0.484C408.493,445.161,408.649,444.995,408.703,445.027z"/>
								</g>
							</g>
						</g>
					</g>
					<g>
						<g>
							<g>
								<g>
									<path style="fill:#263238;" d="M410.417,443.792c0.003,0.064-0.237,0.122-0.478,0.282
										c-0.245,0.154-0.397,0.348-0.454,0.319c-0.057-0.021,0.031-0.316,0.332-0.509
										C410.117,443.69,410.422,443.732,410.417,443.792z"/>
								</g>
							</g>
						</g>
					</g>
					<g>
						<g>
							<g>
								<g>
									<path style="fill:#263238;" d="M411.684,443.095c0.036,0.051-0.044,0.169-0.18,0.265c-0.135,0.096-0.273,0.132-0.309,0.081
										c-0.036-0.051,0.044-0.169,0.18-0.265C411.509,443.081,411.648,443.044,411.684,443.095z"/>
								</g>
							</g>
						</g>
					</g>
				</g>
			</g>
			<g>
				<g>
					<g>
						<g>
							<path style="fill:#263238;" d="M358.939,367.098c5.719,23.255,32.289,77.822,32.289,77.822l14.105-3.643
								c-0.043,3.547,0,5.56,0,5.56l26.69,0.885l3.781-181.611l-33.814,2.74l0,0l-20.562,1.579
								C381.427,270.43,354.17,347.701,358.939,367.098z M386.897,359.32c0.155-4.952,16.499-67.711,16.499-67.711
								c0.613,8.72,2.479,80.004,2.031,121.921C398.279,391.296,386.802,362.332,386.897,359.32z"/>
						</g>
					</g>
				</g>
				<g>
					<g>
						<g>
							<path style="fill:#455A64;" d="M405.559,401.628c-0.035,0-0.071,0.627-0.105,1.761c-0.024,1.218-0.056,2.839-0.095,4.802
								c-0.058,4.055-0.102,9.657-0.12,15.844c-0.017,6.189-0.004,11.791,0.031,15.845c0.028,1.963,0.051,3.583,0.068,4.8
								c0.028,1.133,0.06,1.76,0.095,1.759c0.035,0,0.071-0.628,0.105-1.762c0.024-1.218,0.056-2.838,0.095-4.802
								c0.058-4.055,0.102-9.656,0.12-15.844c0.017-6.186,0.004-11.786-0.031-15.841c-0.028-1.964-0.051-3.584-0.068-4.801
								C405.626,402.254,405.594,401.628,405.559,401.628z"/>
						</g>
					</g>
				</g>
				<g>
					<g>
						<g>
							<path style="fill:#455A64;" d="M418.41,268.579c-0.03,0.001-0.052,0.335-0.006,0.936c0.044,0.602,0.19,1.47,0.528,2.501
								c0.649,2.044,2.284,4.783,5.138,6.571c2.862,1.777,6.042,2.039,8.163,1.723c1.074-0.151,1.919-0.401,2.478-0.626
								c0.561-0.224,0.85-0.39,0.838-0.418c-0.033-0.097-1.252,0.481-3.358,0.683c-2.073,0.217-5.115-0.099-7.85-1.797
								c-2.727-1.708-4.349-4.3-5.067-6.257C418.53,269.915,418.513,268.566,418.41,268.579z"/>
						</g>
					</g>
				</g>
				<g>
					<g>
						<g>
							<path style="fill:#455A64;" d="M400.99,268.851c-0.035,0-0.071,0.339-0.106,0.951c-0.035,0.613-0.068,1.499-0.097,2.595
								c-0.06,2.192-0.107,5.219-0.126,8.564c-0.002,1.666-0.004,3.253-0.005,4.719c0.005,1.452,0.217,2.846,0.882,3.811
								c0.658,0.955,1.569,1.387,2.198,1.458c0.644,0.073,0.973-0.113,0.962-0.131c-0.008-0.048-0.347,0.061-0.926-0.066
								c-0.567-0.121-1.37-0.569-1.929-1.459c-0.561-0.891-0.734-2.186-0.713-3.615c0.014-1.464,0.029-3.049,0.046-4.712
								c0.02-3.344,0.009-6.372-0.024-8.565c-0.017-1.096-0.039-1.983-0.066-2.596C401.058,269.19,401.026,268.851,400.99,268.851z"
								/>
						</g>
					</g>
				</g>
				<g>
					<g>
						<g>
							<path style="fill:#455A64;" d="M379.086,280.16c0.003,0.035,0.264,0.036,0.736,0.008c0.473-0.019,1.153-0.122,1.978-0.314
								c1.65-0.376,3.874-1.265,5.958-2.827c2.079-1.571,3.548-3.462,4.366-4.944c0.413-0.74,0.7-1.365,0.849-1.814
								c0.158-0.446,0.229-0.697,0.196-0.709c-0.086-0.035-0.469,0.934-1.356,2.336c-0.88,1.402-2.347,3.195-4.364,4.72
								c-2.023,1.516-4.152,2.429-5.743,2.886C380.114,279.967,379.077,280.068,379.086,280.16z"/>
						</g>
					</g>
				</g>
			</g>
			<g>
				<g>
					<g>
						<path style="fill:#455A64;" d="M433.062,226.293l0.422,11.327l3.057,35.909l-56.334-3.197l0.769-38.073
							c-0.357-9.474,0.371-24.977-0.61-32.829c0,0-2.266-21.409,13.09-23.898l0,0c6.84,2.114,13.681,2.118,20.521,0.012
							c2.223,0.279,6.16-0.498,12.435,1.77c9.268,3.351,9.805,15.432,8.874,27.476L433.062,226.293z"/>
					</g>
				</g>
				<g>
					<path style="fill:#263238;" d="M413.213,200.073c0.021,0.023-0.276,0.338-0.853,0.91l-0.051,0.05l-0.063-0.045
						c-1.809-1.292-5.913-4.37-11.024-8.269l0.303,0.001c-1.471,1.119-3.057,2.325-4.699,3.574c-2.261,1.704-4.416,3.33-6.388,4.816
						l-0.156,0.118l-0.145-0.127c-2.814-2.453-5.228-4.558-7.02-6.12c-0.801-0.72-1.461-1.314-1.982-1.783
						c-0.455-0.421-0.691-0.657-0.674-0.678c0.018-0.021,0.288,0.176,0.775,0.559c0.544,0.441,1.234,1,2.071,1.679
						c1.823,1.526,4.28,3.581,7.143,5.977l-0.301-0.009c1.964-1.496,4.112-3.132,6.364-4.847c1.647-1.243,3.237-2.444,4.712-3.557
						l0.153-0.115l0.15,0.116c5.083,3.936,9.112,7.11,10.827,8.526l-0.113,0.005C412.855,200.322,413.192,200.051,413.213,200.073z"
						/>
				</g>
				<g>
					<path style="fill:#263238;" d="M410.709,208.1c-0.018,0.021-0.282-0.17-0.756-0.541c-0.534-0.431-1.205-0.973-2.016-1.628
						c-1.779-1.485-4.165-3.477-6.94-5.793l0.298,0.012c-1.835,1.327-3.84,2.776-5.938,4.293c-1.848,1.323-3.622,2.592-5.253,3.76
						l-0.167,0.12l-0.146-0.141c-2.771-2.673-5.163-4.981-6.945-6.7c-0.795-0.791-1.451-1.445-1.971-1.962
						c-0.452-0.463-0.688-0.724-0.668-0.744c0.02-0.021,0.293,0.2,0.78,0.626c0.545,0.49,1.234,1.11,2.068,1.859
						c1.815,1.684,4.252,3.945,7.073,6.564l-0.313-0.021c1.626-1.175,3.394-2.452,5.236-3.783c2.106-1.507,4.117-2.946,5.959-4.263
						l0.156-0.112l0.142,0.124c2.726,2.374,5.07,4.415,6.818,5.937c0.775,0.698,1.417,1.275,1.927,1.734
						C410.497,207.849,410.727,208.079,410.709,208.1z"/>
				</g>
			</g>
			<path style="fill:#FFBE9D;" d="M413.164,204.792l-1.773,36.874c-15.367,0.164-30.068-5.375-35.629-7.836
				c-0.529-0.699-1.129-1.536-1.791-2.554c-0.567-0.874-0.973-1.842-1.215-2.856c-0.294-1.229-0.617-2.877-0.514-3.835
				c0.128-1.185-1.251-1.908-1.981-1.109c-0.729,0.8-1.16,4.056,0.062,7.694c1.223,3.637-3.882,0.411-5.763-0.731
				c-1.881-1.142-7.868-4.403-8.677-4.103c-1.187,0.44-0.934,1.793,0.971,2.89c1.929,1.11,7.387,4.789,6.736,5.754
				c-0.641,0.95-10.139-4.996-10.139-4.996s-1.825-1.599-2.614-0.51c-1.424,1.965,9.138,7.542,10.156,8.048
				c0.708,0.352,0.038,1.425-0.702,1.007c-0.762-0.43-9.336-6.151-10.805-4.164c-1.127,1.524,8.645,4.668,9.764,6.843
				c1.119,2.175-7.168-3.137-8.186-1.637c-0.379,0.559-0.584,1.028,4.616,3.392c2.524,1.147,7.332,2.696,11.692,4.009l-0.024,0.053
				c0,0,56.448,24.252,62.983,2.111c2.204-7.47,3.561-41.038,3.561-41.038L413.164,204.792z"/>
		</g>
		<g>
			<path style="fill:#263238;" d="M420.194,176.057c0.065,0.089-1.647,0.616-3.317,2.739c-0.834,1.04-1.587,2.461-2.131,4.145
				c-0.552,1.682-0.906,3.616-1.223,5.652c-0.635,4.075-0.835,7.812-0.873,10.515c-0.02,1.352-0.006,2.447-0.001,3.205
				c0.009,0.758,0.003,1.178-0.034,1.18c-0.035,0.002-0.097-0.414-0.168-1.171c-0.067-0.757-0.137-1.855-0.164-3.214
				c-0.057-2.717,0.086-6.488,0.726-10.596c0.318-2.048,0.69-4.005,1.282-5.725c0.583-1.719,1.4-3.18,2.301-4.226
				c0.888-1.06,1.82-1.714,2.495-2.075C419.768,176.13,420.185,176.031,420.194,176.057z"/>
		</g>
	</g>
</g>
<g id="Character_1">
	<g>
		<g>
			<path style="fill:#B78876;" d="M360.138,351.674c-17.154,39.131-83.488,65.382-83.488,65.382l-8.47-13.695
				c0,0,56.567-33.108,62.346-51.402c5.779-18.293-3.958-50.753-3.958-50.753l17.601-3.633L360.138,351.674z"/>
			<path style="fill:#B78876;" d="M325.827,258.541c-0.507-0.075-9.349,15.141-6.233,27.064c0.313,1.199,1.671,4.01,3.269,8.025
				c7.585,19.068,24.723,63.831,24.383,69.8c-0.412,7.226,4.976,85.296,4.976,85.296l15.58,0.648l4.591-86.372l-2.307-83.268
				L325.827,258.541z"/>
			<g>
				<path style="fill:#A36957;" d="M352.076,358.035c0.059-0.007,0.23,0.802,0.239,2.137c0.01,1.33-0.198,3.189-0.866,5.123
					c-0.674,1.933-1.669,3.521-2.516,4.548c-0.847,1.032-1.497,1.547-1.537,1.504c-0.143-0.107,2.272-2.432,3.56-6.224
					C352.285,361.352,351.895,358.028,352.076,358.035z"/>
			</g>
		</g>
		<g>
			<g>
				<g>
					<g>
						<g>
							<g>
								<path style="fill:#E8505B;" d="M276.543,418.129l3.212-1.777l-8.656-14.591l-6.361,3.432l0.442,0.952
									c2.003,4.217,10.483,21.303,12.803,23.587C280.573,432.28,276.543,418.129,276.543,418.129z"/>
							</g>
						</g>
					</g>
					<g style="opacity:0.5;">
						<g>
							<g>
								<path style="fill:#FFFFFF;" d="M267.785,410.509c1.124-0.887,1.9-2.203,2.132-3.616c0.231-1.413-0.028-2.857-0.811-4.055
									l-4.148,2.256L267.785,410.509z"/>
							</g>
						</g>
					</g>
				</g>
				<g>
					<g>
						<g>
							<path style="opacity:0.5;fill:#FFFFFF;" d="M278.292,425.163c0,0,1.133,5.112,0.105,4.957
								c-1.028-0.155-10.246-17.098-13.659-24.928l0.345-0.157l10.585,19.855C275.667,424.891,277.786,424.319,278.292,425.163z"/>
						</g>
					</g>
				</g>
				<g>
					<g>
						<g>
							<g>
								<path style="fill:#263238;" d="M264.965,404.798c-0.006,0.003,0.032,0.096,0.111,0.27c0.107,0.227,0.223,0.476,0.355,0.757
									c0.367,0.75,0.819,1.672,1.351,2.76c1.157,2.323,2.799,5.51,4.689,8.991c1.891,3.481,3.671,6.594,4.989,8.829
									c0.623,1.039,1.15,1.92,1.58,2.636c0.164,0.263,0.309,0.496,0.442,0.709c0.103,0.161,0.16,0.244,0.166,0.24
									c0.006-0.004-0.039-0.093-0.13-0.261c-0.123-0.219-0.257-0.458-0.409-0.729c-0.414-0.725-0.923-1.616-1.523-2.668
									c-1.286-2.253-3.045-5.376-4.935-8.854c-1.888-3.478-3.549-6.653-4.74-8.958c-0.556-1.076-1.026-1.988-1.409-2.73
									c-0.144-0.274-0.272-0.518-0.389-0.74C265.022,404.882,264.971,404.795,264.965,404.798z"/>
							</g>
						</g>
					</g>
				</g>
				<g>
					<g>
						<g>
							<g>
								<path style="fill:#263238;" d="M275.435,425.013c0.023,0.059,0.69-0.25,1.562-0.197c0.873,0.038,1.504,0.413,1.533,0.358
									c0.039-0.035-0.587-0.519-1.522-0.562C276.072,424.557,275.4,424.974,275.435,425.013z"/>
							</g>
						</g>
					</g>
				</g>
				<g>
					<g>
						<g>
							<g>
								<path style="fill:#263238;" d="M275.274,419.425c-0.004,0.056,0.365,0.127,0.824,0.158c0.459,0.031,0.834,0.01,0.838-0.046
									c0.004-0.056-0.365-0.127-0.824-0.158C275.653,419.348,275.277,419.369,275.274,419.425z"/>
							</g>
						</g>
					</g>
				</g>
				<g>
					<g>
						<g>
							<g>
								<path style="fill:#263238;" d="M275.255,417.878c-0.019,0.053,0.265,0.202,0.634,0.333c0.369,0.131,0.683,0.193,0.702,0.14
									c0.019-0.053-0.265-0.203-0.633-0.333C275.589,417.888,275.274,417.825,275.255,417.878z"/>
							</g>
						</g>
					</g>
				</g>
				<g>
					<g>
						<g>
							<g>
								<path style="fill:#263238;" d="M276.243,416.357c-0.05,0.026,0.094,0.397,0.323,0.828c0.228,0.431,0.454,0.759,0.504,0.732
									c0.05-0.026-0.094-0.397-0.323-0.828C276.518,416.658,276.292,416.33,276.243,416.357z"/>
							</g>
						</g>
					</g>
				</g>
				<g>
					<g>
						<g>
							<g>
								<path style="fill:#263238;" d="M277.088,415.558c-0.054,0.008-0.018,0.478,0.219,1.001c0.234,0.525,0.563,0.862,0.604,0.828
									c0.047-0.036-0.195-0.413-0.418-0.911C277.268,415.978,277.146,415.547,277.088,415.558z"/>
							</g>
						</g>
					</g>
				</g>
				<g>
					<g>
						<g>
							<g>
								<path style="fill:#263238;" d="M276.842,419.224c-0.021,0.01,0.134,0.4,0.525,0.95c0.195,0.275,0.454,0.584,0.776,0.893
									c0.167,0.15,0.323,0.317,0.556,0.451c0.114,0.06,0.26,0.117,0.425,0.075c0.164-0.038,0.283-0.202,0.302-0.352
									c-0.024-1.169-1.033-1.802-1.688-1.884c-0.342-0.055-0.623-0.013-0.806,0.035c-0.184,0.051-0.275,0.104-0.271,0.115
									c0.006,0.04,0.41-0.14,1.05-0.008c0.314,0.066,0.673,0.228,0.973,0.527c0.283,0.282,0.571,0.747,0.541,1.179
									c-0.03,0.212-0.24,0.25-0.432,0.136c-0.187-0.102-0.359-0.271-0.521-0.411c-0.32-0.294-0.584-0.586-0.79-0.843
									C277.07,419.572,276.871,419.208,276.842,419.224z"/>
							</g>
						</g>
					</g>
				</g>
				<g>
					<g>
						<g>
							<g>
								<path style="fill:#263238;" d="M276.929,419.497c-0.003,0.019,0.317,0.027,0.722-0.25c0.198-0.138,0.406-0.351,0.555-0.639
									c0.12-0.284,0.294-0.659,0.054-1.058c-0.148-0.206-0.459-0.177-0.6-0.054c-0.158,0.108-0.26,0.262-0.338,0.394
									c-0.161,0.271-0.267,0.537-0.332,0.764c-0.129,0.458-0.113,0.755-0.089,0.756c0.032,0.004,0.068-0.283,0.227-0.71
									c0.08-0.213,0.194-0.459,0.355-0.711c0.13-0.241,0.444-0.527,0.617-0.311c0.153,0.226,0.048,0.599-0.063,0.848
									c-0.125,0.262-0.302,0.466-0.473,0.607C277.215,419.416,276.919,419.462,276.929,419.497z"/>
							</g>
						</g>
					</g>
				</g>
				<g>
					<g>
						<g>
							<g>
								<path style="fill:#263238;" d="M269.19,402.892c-0.032,0.022,0.272,0.403,0.558,1.117c0.288,0.704,0.518,1.777,0.316,2.928
									c-0.204,1.152-0.788,2.081-1.299,2.644c-0.513,0.572-0.928,0.827-0.906,0.858c0.007,0.01,0.116-0.042,0.299-0.162
									c0.184-0.12,0.436-0.317,0.712-0.597c0.552-0.553,1.182-1.506,1.395-2.707c0.211-1.201-0.054-2.312-0.384-3.021
									c-0.164-0.358-0.333-0.629-0.465-0.805C269.285,402.971,269.2,402.884,269.19,402.892z"/>
							</g>
						</g>
					</g>
				</g>
				<g>
					<g>
						<g>
							<g>
								<path style="fill:#263238;" d="M270.248,411.589c-0.05,0.019,0.317,1.072,0.964,2.283c0.643,1.213,1.311,2.107,1.355,2.076
									c0.049-0.033-0.537-0.97-1.174-2.172C270.753,412.576,270.304,411.566,270.248,411.589z"/>
							</g>
						</g>
					</g>
				</g>
				<g>
					<g>
						<g>
							<g>
								<path style="fill:#263238;" d="M268.67,408.678c-0.056-0.017-0.162,0.191-0.331,0.411c-0.165,0.222-0.336,0.381-0.305,0.431
									c0.026,0.048,0.276-0.051,0.469-0.307C268.697,408.958,268.724,408.69,268.67,408.678z"/>
							</g>
						</g>
					</g>
				</g>
				<g>
					<g>
						<g>
							<g>
								<path style="fill:#263238;" d="M269.438,406.84c-0.054-0.016-0.156,0.164-0.229,0.402c-0.072,0.238-0.087,0.445-0.033,0.461
									c0.054,0.016,0.156-0.163,0.229-0.402C269.478,407.062,269.492,406.856,269.438,406.84z"/>
							</g>
						</g>
					</g>
				</g>
				<g>
					<g>
						<g>
							<g>
								<path style="fill:#263238;" d="M269.208,404.932c-0.045,0.038,0.064,0.234,0.106,0.494c0.048,0.259,0.011,0.48,0.066,0.501
									c0.049,0.025,0.192-0.215,0.136-0.535C269.461,405.07,269.246,404.892,269.208,404.932z"/>
							</g>
						</g>
					</g>
				</g>
				<g>
					<g>
						<g>
							<g>
								<path style="fill:#263238;" d="M268.895,403.655c-0.056,0.007-0.086,0.134-0.067,0.283c0.019,0.149,0.08,0.264,0.136,0.257
									c0.056-0.007,0.086-0.134,0.067-0.283C269.012,403.763,268.951,403.648,268.895,403.655z"/>
							</g>
						</g>
					</g>
				</g>
			</g>
		</g>
		<g>
			<path style="fill:#263238;" d="M351.529,138.025c-3.837,1.085-5.98,5.124-7.239,8.907c-1.26,3.783-2.22,7.941-5.172,10.622
				c-3.015,2.738-7.919,3.769-9.256,7.615c-0.792,2.279,0.014,4.837-0.549,7.183c-0.699,2.914-3.349,4.931-6.023,6.286
				c-2.673,1.355-5.604,2.342-7.831,4.349c-4.713,4.247-4.683,12.182-1.036,17.374c3.646,5.191,10.02,7.9,16.317,8.669
				c5,0.611,10.273,0.109,14.677-2.336c3.293-1.828,5.953-4.646,9.246-6.476c4.024-2.237,8.729-2.862,13.02-4.531
				c4.29-1.67,8.523-5.005,8.911-9.593c0.303-3.582-1.803-6.89-2.525-10.411c-1.464-7.144,2.841-14.676,0.834-21.687"/>
			<g>
				<g>
					<g>
						<g>
							<g>
								<g>
									<path style="fill:#B78876;" d="M345.497,183.861l19.045,3.173c0.661-2.151,2.612-10.625,2.612-10.625
										s8.071,0.733,10.107-7.011c2.036-7.744,5.145-25.917,5.145-25.917l0,0c-8.027-6.11-18.732-7.398-27.978-3.365l-1.372,0.599
										L345.497,183.861z"/>
								</g>
							</g>
							<g>
								<g>
									<g>
										<path style="fill:#263238;" d="M377.197,156.529c-0.357-0.534-0.214-1.256,0.32-1.613c0.534-0.357,1.256-0.214,1.613,0.32
											c0.357,0.534,0.214,1.256-0.32,1.613C378.276,157.206,377.554,157.063,377.197,156.529z"/>
									</g>
								</g>
								<g>
									<g>
										<g>
											<path style="fill:#263238;" d="M379.408,155.846c-0.155,0.104-0.771-0.673-1.84-0.946
												c-1.065-0.288-1.983,0.087-2.067-0.081c-0.042-0.075,0.139-0.288,0.543-0.461c0.397-0.173,1.029-0.277,1.694-0.103
												c0.665,0.174,1.164,0.576,1.424,0.922C379.428,155.527,379.482,155.801,379.408,155.846z"/>
										</g>
									</g>
								</g>
							</g>
							<g>
								<g>
									<g>
										<path style="fill:#263238;" d="M367.221,153.101c0.449,0.459,0.441,1.195-0.018,1.644
											c-0.459,0.449-1.195,0.441-1.644-0.018c-0.449-0.459-0.441-1.195,0.018-1.644
											C366.036,152.634,366.772,152.642,367.221,153.101z"/>
									</g>
								</g>
								<g>
									<g>
										<g>
											<path style="fill:#263238;" d="M367.557,153.9c-0.155,0.104-0.772-0.673-1.84-0.945
												c-1.065-0.288-1.983,0.087-2.067-0.081c-0.043-0.076,0.139-0.288,0.542-0.461c0.397-0.173,1.029-0.277,1.694-0.103
												c0.665,0.174,1.164,0.576,1.424,0.922C367.577,153.581,367.631,153.856,367.557,153.9z"/>
										</g>
									</g>
								</g>
							</g>
							<g>
								<g>
									<g>
										<path style="fill:#263238;" d="M369.839,163.019c0.014-0.085,0.709-0.054,1.822,0.066c0.287,0.04,0.523,0.031,0.581-0.114
											c0.093-0.157,0.059-0.482,0-0.851c-0.099-0.776-0.198-1.562-0.303-2.385c-0.395-3.389-0.576-6.152-0.404-6.172
											c0.172-0.02,0.632,2.71,1.027,6.099c0.088,0.825,0.171,1.613,0.254,2.391c0.022,0.349,0.122,0.776-0.137,1.201
											c-0.135,0.212-0.397,0.324-0.594,0.326c-0.199,0.01-0.357-0.029-0.493-0.057
											C370.496,163.291,369.826,163.105,369.839,163.019z"/>
									</g>
								</g>
							</g>
							<g>
								<g>
									<path style="fill:#FFFFFF;" d="M366.068,163.333c3.419,1.758,4.866,2.835,4.866,2.835s-1.748,1.684-3.783,0.305
										C365.039,165.041,366.068,163.333,366.068,163.333z"/>
								</g>
							</g>
							<g>
								<g>
									<path style="fill:#A36957;" d="M367.195,176.301c0,0-5.009-0.827-9.408-5.407c0,0,0.997,6.188,8.923,7.424L367.195,176.301
										z"/>
								</g>
							</g>
						</g>
					</g>
					<path style="fill:#263238;" d="M361.354,132.068c-3.357,0.934,1.275,9.487,4.106,10.342c1.873,0.566,4.278,0.278,5.392,1.887
						c0.911,1.317,0.401,3.294,1.421,4.529c1.389,1.682,4.421,0.703,6.009,2.198c0.635,0.598,0.902,1.479,1.153,2.315
						c0.25,0.836,0.537,1.715,1.195,2.288c0.658,0.573,1.81,0.669,2.328-0.034C382.957,155.593,385.317,125.399,361.354,132.068z"/>
				</g>
				<path style="fill:#263238;" d="M343.828,182.541c4.148,0.657,8.932-1.709,9.236-5.898c0.215-2.969-1.307-5.958-0.621-8.855
					c0.887-3.743,5.234-6.286,5.128-10.131c-0.053-1.945-1.282-3.651-1.736-5.543c-0.595-2.478,0.206-5.142,1.672-7.227
					c1.466-2.085,3.539-3.665,5.686-5.038c0.573-0.366,1.166-0.732,1.578-1.273c0.412-0.54,0.606-1.307,0.29-1.909
					c-0.301-0.573-1.95-3.967-2.57-4.151c-4.296-1.274-8.542,1.581-11.951,4.488c-3.409,2.907-4.33,8.289-6.078,14.793"/>
				<g>
					<path style="fill:#263238;" d="M343.828,182.541c0.005-0.048,0.765,0.076,2.139,0.03c0.685-0.028,1.523-0.111,2.471-0.32
						c0.936-0.227,2.022-0.545,2.962-1.295c0.934-0.732,1.802-1.841,2.019-3.218c0.225-1.386-0.389-2.843-1.078-4.306
						c-0.341-0.741-0.703-1.515-0.926-2.375c-0.236-0.852-0.273-1.816,0.014-2.721c0.281-0.91,0.878-1.692,1.559-2.338
						c0.685-0.651,1.457-1.199,2.228-1.743c1.529-1.076,3.094-2.124,3.882-3.65c0.817-1.513,0.67-3.278,0.236-4.81
						c-0.414-1.556-1.029-2.992-1.447-4.397c-0.429-1.398-0.694-2.782-0.569-4.052c0.243-2.552,1.557-4.304,2.555-5.243
						c0.506-0.486,0.972-0.773,1.281-0.967c0.324-0.172,0.497-0.254,0.506-0.238c0.033,0.05-0.683,0.373-1.645,1.35
						c-0.931,0.957-2.147,2.69-2.33,5.127c-0.096,1.205,0.175,2.526,0.614,3.894c0.428,1.376,1.057,2.8,1.498,4.401
						c0.214,0.799,0.4,1.646,0.389,2.538c-0.002,0.888-0.206,1.807-0.636,2.633c-0.875,1.687-2.517,2.764-4.035,3.839
						c-1.512,1.068-3.08,2.179-3.601,3.809c-0.543,1.636,0.203,3.286,0.863,4.742c0.671,1.462,1.335,3.027,1.068,4.573
						c-0.263,1.523-1.219,2.685-2.221,3.442c-1.025,0.782-2.165,1.083-3.126,1.287c-0.976,0.188-1.832,0.242-2.528,0.238
						c-0.697-0.003-1.234-0.067-1.596-0.114C344.013,182.599,343.826,182.558,343.828,182.541z"/>
				</g>
				<g>
					<path style="fill:#263238;" d="M368.018,150.802c-0.054,0.139-1.278-0.223-2.804-0.559c-1.525-0.342-2.787-0.534-2.777-0.682
						c0.006-0.139,1.319-0.178,2.89,0.174C366.899,150.081,368.072,150.673,368.018,150.802z"/>
				</g>
				<g>
					<path style="fill:#263238;" d="M378.946,152.984c-0.037,0.139-0.943,0.017-2.024-0.273c-1.081-0.29-1.926-0.637-1.889-0.776
						s0.943-0.017,2.024,0.273C378.137,152.498,378.983,152.845,378.946,152.984z"/>
				</g>
			</g>
		</g>
		<g>
			<g>
				<g>
					<g>
						<g>
							<g>
								<path style="fill:#E8505B;" d="M368.674,448.891l-0.063-3.67l-16.946,0.803l0.048,7.228l1.048,0.056
									c4.664,0.208,23.731,0.73,26.837-0.248C383.062,451.968,368.674,448.891,368.674,448.891z"/>
							</g>
						</g>
					</g>
					<g style="opacity:0.5;">
						<g>
							<g>
								<path style="fill:#FFFFFF;" d="M357.836,453.053c-0.256-1.409-1.055-2.712-2.195-3.578c-1.14-0.867-2.536-1.315-3.962-1.185
									l0.048,4.721L357.836,453.053z"/>
							</g>
						</g>
					</g>
				</g>
				<g>
					<g>
						<g>
							<path style="opacity:0.5;fill:#FFFFFF;" d="M375.707,450.645c0,0,5.046,1.397,4.428,2.232
								c-0.618,0.835-19.907,1.033-28.422,0.375l0.023-0.378l22.5-0.039C374.236,452.836,374.724,450.696,375.707,450.645z"/>
						</g>
					</g>
				</g>
				<g>
					<g>
						<g>
							<g>
								<path style="fill:#263238;" d="M351.47,452.866c0,0.007,0.1,0.017,0.29,0.029c0.251,0.013,0.525,0.026,0.835,0.042
									c0.835,0.027,1.861,0.061,3.072,0.101c2.594,0.067,6.18,0.111,10.139,0.074c3.961-0.038,7.545-0.151,10.138-0.267
									c1.21-0.063,2.235-0.116,3.069-0.159c0.309-0.021,0.583-0.04,0.834-0.057c0.19-0.015,0.29-0.027,0.29-0.034
									s-0.101-0.009-0.292-0.007c-0.251,0.006-0.525,0.012-0.835,0.019c-0.834,0.026-1.86,0.057-3.071,0.094
									c-2.593,0.079-6.176,0.168-10.134,0.207c-3.958,0.037-7.541,0.015-10.135-0.014c-1.211-0.014-2.237-0.026-3.072-0.036
									c-0.31-0.001-0.585-0.002-0.836-0.003C351.571,452.855,351.471,452.859,351.47,452.866z"/>
							</g>
						</g>
					</g>
				</g>
				<g>
					<g>
						<g>
							<g>
								<path style="fill:#263238;" d="M374.234,453.098c0.062,0.007,0.103-0.727,0.558-1.472c0.443-0.753,1.07-1.134,1.035-1.186
									c-0.013-0.051-0.733,0.275-1.21,1.081C374.131,452.322,374.183,453.111,374.234,453.098z"/>
							</g>
						</g>
					</g>
				</g>
				<g>
					<g>
						<g>
							<g>
								<path style="fill:#263238;" d="M369.224,450.62c0.048,0.03,0.284-0.263,0.526-0.654c0.242-0.391,0.4-0.732,0.352-0.762
									c-0.048-0.03-0.283,0.263-0.526,0.654C369.333,450.249,369.176,450.59,369.224,450.62z"/>
							</g>
						</g>
					</g>
				</g>
				<g>
					<g>
						<g>
							<g>
								<path style="fill:#263238;" d="M367.848,449.911c0.038,0.042,0.303-0.139,0.591-0.403c0.288-0.265,0.491-0.513,0.453-0.554
									c-0.038-0.042-0.303,0.139-0.591,0.403C368.013,449.621,367.81,449.869,367.848,449.911z"/>
							</g>
						</g>
					</g>
				</g>
				<g>
					<g>
						<g>
							<g>
								<path style="fill:#263238;" d="M366.967,448.325c0,0.057,0.395,0.103,0.883,0.103c0.487,0,0.883-0.045,0.883-0.102
									c0-0.056-0.395-0.103-0.882-0.103C367.362,448.223,366.967,448.269,366.967,448.325z"/>
							</g>
						</g>
					</g>
				</g>
				<g>
					<g>
						<g>
							<g>
								<path style="fill:#263238;" d="M366.659,447.204c-0.018,0.051,0.413,0.24,0.986,0.276c0.573,0.039,1.026-0.093,1.014-0.146
									c-0.01-0.058-0.456-0.021-1.001-0.059C367.114,447.242,366.676,447.147,366.659,447.204z"/>
							</g>
						</g>
					</g>
				</g>
				<g>
					<g>
						<g>
							<g>
								<path style="fill:#263238;" d="M369.782,449.141c-0.001,0.023,0.416,0.07,1.085-0.018c0.334-0.044,0.729-0.127,1.153-0.267
									c0.211-0.078,0.432-0.136,0.659-0.279c0.107-0.073,0.225-0.175,0.265-0.34c0.043-0.163-0.046-0.345-0.169-0.432
									c-1.043-0.527-2.076,0.067-2.456,0.608c-0.209,0.276-0.304,0.544-0.347,0.728c-0.042,0.186-0.037,0.292-0.025,0.293
									c0.039,0.014,0.069-0.428,0.485-0.931c0.205-0.247,0.517-0.488,0.921-0.612c0.382-0.118,0.927-0.154,1.295,0.075
									c0.174,0.126,0.109,0.329-0.082,0.446c-0.177,0.117-0.408,0.19-0.608,0.267c-0.409,0.146-0.791,0.241-1.115,0.302
									C370.195,449.102,369.781,449.107,369.782,449.141z"/>
							</g>
						</g>
					</g>
				</g>
				<g>
					<g>
						<g>
							<g>
								<path style="fill:#263238;" d="M370.063,449.192c0.016,0.012,0.173-0.267,0.117-0.755c-0.029-0.239-0.12-0.523-0.305-0.79
									c-0.194-0.239-0.444-0.568-0.909-0.544c-0.251,0.035-0.371,0.323-0.329,0.505c0.022,0.19,0.109,0.352,0.189,0.483
									c0.164,0.27,0.349,0.487,0.519,0.652c0.344,0.329,0.614,0.454,0.626,0.433c0.019-0.027-0.218-0.193-0.521-0.533
									c-0.151-0.17-0.315-0.387-0.461-0.647c-0.151-0.228-0.258-0.639,0.014-0.691c0.271-0.029,0.552,0.239,0.72,0.453
									c0.173,0.233,0.27,0.485,0.314,0.703C370.125,448.901,370.027,449.184,370.063,449.192z"/>
							</g>
						</g>
					</g>
				</g>
				<g>
					<g>
						<g>
							<g>
								<path style="fill:#263238;" d="M351.768,448.241c0.004,0.038,0.483-0.051,1.248,0.031c0.757,0.076,1.812,0.376,2.734,1.094
									c0.922,0.72,1.468,1.671,1.726,2.387c0.265,0.721,0.295,1.208,0.333,1.203c0.012-0.001,0.017-0.122-0.003-0.341
									c-0.02-0.218-0.075-0.533-0.193-0.909c-0.229-0.747-0.776-1.75-1.737-2.501c-0.962-0.749-2.067-1.036-2.848-1.077
									c-0.393-0.023-0.712-0.001-0.929,0.033C351.883,448.194,351.766,448.228,351.768,448.241z"/>
							</g>
						</g>
					</g>
				</g>
				<g>
					<g>
						<g>
							<g>
								<path style="fill:#263238;" d="M359.945,451.384c-0.007,0.053,1.096,0.223,2.469,0.22c1.373,0.001,2.475-0.17,2.469-0.223
									c-0.006-0.059-1.109,0.02-2.469,0.019C361.054,451.402,359.951,451.325,359.945,451.384z"/>
							</g>
						</g>
					</g>
				</g>
				<g>
					<g>
						<g>
							<g>
								<path style="fill:#263238;" d="M356.634,451.413c-0.041,0.042,0.093,0.233,0.208,0.485c0.119,0.25,0.179,0.476,0.237,0.471
									c0.055-0.001,0.084-0.268-0.052-0.558C356.894,451.521,356.671,451.372,356.634,451.413z"/>
							</g>
						</g>
					</g>
				</g>
				<g>
					<g>
						<g>
							<g>
								<path style="fill:#263238;" d="M355.371,449.873c-0.04,0.04,0.071,0.215,0.247,0.39c0.177,0.175,0.352,0.285,0.392,0.245
									c0.04-0.04-0.071-0.215-0.248-0.39C355.586,449.942,355.411,449.833,355.371,449.873z"/>
							</g>
						</g>
					</g>
				</g>
				<g>
					<g>
						<g>
							<g>
								<path style="fill:#263238;" d="M353.578,449.182c0.013,0.057,0.237,0.053,0.486,0.138c0.251,0.079,0.429,0.215,0.473,0.176
									c0.045-0.031-0.1-0.271-0.409-0.371C353.819,449.022,353.56,449.129,353.578,449.182z"/>
							</g>
						</g>
					</g>
				</g>
				<g>
					<g>
						<g>
							<g>
								<path style="fill:#263238;" d="M352.304,448.86c-0.02,0.053,0.078,0.139,0.219,0.192c0.141,0.053,0.271,0.053,0.291,0
									c0.02-0.053-0.078-0.139-0.219-0.192C352.454,448.807,352.323,448.807,352.304,448.86z"/>
							</g>
						</g>
					</g>
				</g>
			</g>
		</g>
		<g>
			<g>
				<path style="fill:#E8505B;" d="M400.674,340.09c-17.25-18.905-24.777-44.261-27.386-73.175l0,0
					c0.742-14.039,2.239-24.782,2.239-31.13l2.094-6.25c2.563-7.652,2.788-15.916,0.511-23.658
					c-0.135-0.459-0.271-0.928-0.407-1.414l-3.536-12.918c-0.937-4.665-4.795-8.29-9.539-8.654c-0.788-0.06-1.17,0.004-1.17,0.004
					l-19.191-0.311c0,0-0.161-0.02-0.46-0.044c-12.31-0.986-21.714,10.827-18.187,22.662l2.986,10.018
					c0,0,6.682,22.622,5.134,24.555c-10.874,13.574-14.342,30.681-14.289,31.233c0,0.001,0.025,0.012,0,0
					c-1.138,5.361-1.533,11.031-1.953,16.657c-1.14,15.255,0.326,33.829-0.06,49.122c-0.113,4.475-0.405,9.006,0.534,13.383
					c0.939,4.377,3.323,8.682,7.283,10.771c7.158,3.775,15.664-0.877,23.722-1.619c8.827-0.813,17.279,3.195,25.474,6.573
					c8.196,3.378,17.456,6.219,25.763,3.125c4.755-1.771,8.93-5.807,9.639-10.832C410.852,351.246,405.399,345.268,400.674,340.09z"
					/>
			</g>
			<g>
				<path style="fill:#263238;" d="M333.337,214.553c-0.01-0.015,0.127-0.123,0.395-0.317c0.32-0.222,0.712-0.494,1.188-0.824
					c1.109-0.741,2.605-1.739,4.425-2.955c3.752-2.478,8.961-5.876,14.751-9.616l-0.08,0.357c-0.074-0.119-0.155-0.248-0.236-0.377
					c-1.847-2.966-3.605-5.789-5.212-8.368c-0.794-1.286-1.551-2.51-2.261-3.66c-0.705-1.149-1.357-2.213-2.076-3.085
					c-0.716-0.87-1.489-1.553-2.274-1.971c-0.781-0.43-1.542-0.616-2.164-0.676c-1.265-0.091-1.919,0.305-1.934,0.241
					c-0.005-0.009,0.144-0.115,0.467-0.229c0.32-0.116,0.823-0.234,1.48-0.214c0.652,0.031,1.455,0.196,2.286,0.621
					c0.839,0.414,1.665,1.111,2.421,1.992c0.759,0.884,1.44,1.956,2.159,3.092c0.724,1.142,1.493,2.357,2.302,3.634
					c1.617,2.573,3.387,5.388,5.247,8.346c0.081,0.129,0.161,0.258,0.236,0.377l0.136,0.218l-0.216,0.139
					c-5.791,3.737-11.032,7.086-14.835,9.485c-1.857,1.159-3.383,2.111-4.515,2.817c-0.497,0.298-0.906,0.543-1.24,0.743
					C333.502,214.488,333.347,214.568,333.337,214.553z"/>
			</g>
			<g style="opacity:0.2;">
				<path d="M333.144,214.676c2.331,8.214,6.213,15.985,11.38,22.783c1.984,2.611,4.645,5.302,7.92,5.13
					c1.703-0.09,3.57-1.555,3.089-3.191c-0.162-0.55-0.558-0.995-0.942-1.42c-6.781-7.5-13.561-15-20.342-22.5"/>
			</g>
			<g>
				<path style="fill:#263238;" d="M330.529,305.075c-0.005-0.022,0.188-0.107,0.555-0.075c0.364,0.027,0.894,0.221,1.372,0.688
					c0.456,0.46,0.896,1.232,0.761,2.163c-0.117,0.948-1.021,1.738-2.039,1.9c-1.013,0.191-2.131-0.25-2.56-1.103
					c-0.44-0.832-0.285-1.707-0.01-2.293c0.293-0.6,0.727-0.961,1.061-1.109c0.335-0.154,0.545-0.138,0.548-0.116
					c0.053,0.081-0.827,0.248-1.271,1.371c-0.202,0.529-0.277,1.28,0.09,1.911c0.346,0.641,1.206,0.976,2.053,0.827
					c0.848-0.144,1.545-0.749,1.655-1.469c0.133-0.717-0.189-1.399-0.557-1.83C331.392,305.03,330.506,305.17,330.529,305.075z"/>
			</g>
			<g>
				<path style="fill:#263238;" d="M349.279,281.128c-0.005-0.022,0.188-0.107,0.555-0.075c0.364,0.027,0.894,0.221,1.372,0.688
					c0.456,0.46,0.896,1.232,0.761,2.163c-0.117,0.948-1.021,1.739-2.039,1.9c-1.013,0.191-2.131-0.25-2.56-1.103
					c-0.44-0.832-0.285-1.707-0.01-2.294c0.293-0.6,0.727-0.961,1.061-1.109c0.335-0.154,0.545-0.138,0.548-0.116
					c0.053,0.081-0.827,0.248-1.271,1.371c-0.202,0.529-0.277,1.28,0.09,1.911c0.346,0.641,1.206,0.976,2.053,0.827
					c0.848-0.144,1.545-0.749,1.655-1.469c0.133-0.717-0.189-1.399-0.557-1.83C350.142,281.083,349.256,281.223,349.279,281.128z"/>
			</g>
			<g>
				<path style="fill:#263238;" d="M364.118,260.15c-0.005-0.022,0.188-0.107,0.555-0.075c0.364,0.027,0.894,0.221,1.372,0.688
					c0.456,0.46,0.896,1.232,0.761,2.163c-0.117,0.948-1.021,1.739-2.039,1.9c-1.013,0.191-2.131-0.25-2.56-1.103
					c-0.44-0.832-0.285-1.707-0.01-2.293c0.293-0.6,0.727-0.961,1.06-1.109c0.335-0.154,0.545-0.138,0.548-0.116
					c0.053,0.081-0.827,0.248-1.271,1.371c-0.203,0.529-0.277,1.28,0.09,1.911c0.346,0.641,1.206,0.976,2.053,0.827
					c0.848-0.144,1.545-0.749,1.655-1.469c0.133-0.717-0.189-1.399-0.558-1.829C364.981,260.105,364.095,260.244,364.118,260.15z"/>
			</g>
			<g>
				<path style="fill:#263238;" d="M367.486,202.618c-0.005-0.022,0.188-0.107,0.555-0.075c0.364,0.027,0.894,0.221,1.372,0.688
					c0.456,0.46,0.896,1.232,0.761,2.163c-0.117,0.948-1.021,1.738-2.039,1.9c-1.013,0.191-2.131-0.25-2.56-1.103
					c-0.44-0.832-0.284-1.707-0.01-2.294c0.293-0.6,0.727-0.961,1.061-1.109c0.335-0.154,0.545-0.138,0.548-0.116
					c0.053,0.081-0.827,0.248-1.27,1.371c-0.203,0.529-0.277,1.28,0.09,1.911c0.346,0.641,1.206,0.976,2.053,0.827
					c0.848-0.144,1.545-0.749,1.655-1.469c0.133-0.717-0.189-1.399-0.557-1.829C368.349,202.573,367.464,202.712,367.486,202.618z"
					/>
			</g>
			<g>
				<path style="fill:#263238;" d="M335.61,195.962c-0.005-0.022,0.188-0.107,0.555-0.075c0.363,0.027,0.894,0.221,1.371,0.688
					c0.456,0.46,0.896,1.232,0.761,2.163c-0.117,0.948-1.021,1.739-2.039,1.9c-1.013,0.191-2.131-0.25-2.56-1.103
					c-0.44-0.832-0.285-1.707-0.01-2.294c0.293-0.6,0.727-0.961,1.061-1.109c0.335-0.154,0.545-0.138,0.548-0.116
					c0.053,0.081-0.827,0.248-1.271,1.371c-0.203,0.53-0.277,1.28,0.09,1.911c0.346,0.641,1.206,0.976,2.053,0.827
					c0.848-0.144,1.545-0.749,1.655-1.469c0.133-0.717-0.189-1.399-0.557-1.829C336.473,195.917,335.587,196.056,335.61,195.962z"/>
			</g>
			<g>
				<path style="fill:#263238;" d="M374.112,303.284c-0.005-0.022,0.188-0.107,0.555-0.075c0.364,0.027,0.894,0.221,1.372,0.688
					c0.456,0.46,0.896,1.231,0.761,2.163c-0.117,0.948-1.021,1.738-2.039,1.899c-1.013,0.191-2.131-0.25-2.56-1.103
					c-0.44-0.832-0.284-1.707-0.01-2.293c0.293-0.6,0.727-0.961,1.061-1.109c0.335-0.154,0.545-0.138,0.548-0.116
					c0.053,0.081-0.827,0.248-1.271,1.371c-0.202,0.529-0.277,1.28,0.09,1.911c0.346,0.641,1.206,0.976,2.053,0.827
					c0.848-0.144,1.545-0.749,1.655-1.469c0.133-0.717-0.189-1.399-0.557-1.83C374.974,303.239,374.089,303.378,374.112,303.284z"/>
			</g>
			<g>
				<path style="fill:#263238;" d="M336.939,259.382c-0.005-0.022,0.188-0.107,0.555-0.075c0.364,0.027,0.894,0.221,1.372,0.688
					c0.456,0.46,0.896,1.232,0.761,2.163c-0.117,0.948-1.021,1.738-2.039,1.9c-1.013,0.191-2.131-0.25-2.56-1.103
					c-0.44-0.832-0.285-1.707-0.01-2.294c0.293-0.6,0.728-0.961,1.061-1.109c0.335-0.154,0.545-0.138,0.548-0.116
					c0.053,0.081-0.827,0.248-1.271,1.371c-0.202,0.53-0.277,1.28,0.09,1.911c0.346,0.641,1.206,0.976,2.053,0.827
					c0.848-0.144,1.545-0.749,1.655-1.469c0.133-0.717-0.189-1.399-0.557-1.83C337.802,259.337,336.917,259.477,336.939,259.382z"/>
			</g>
			<g>
				<path style="fill:#263238;" d="M358.862,319.148c-0.005-0.022,0.188-0.107,0.555-0.075c0.364,0.027,0.894,0.221,1.372,0.688
					c0.456,0.46,0.896,1.232,0.761,2.163c-0.117,0.948-1.021,1.739-2.039,1.9c-1.013,0.191-2.131-0.25-2.56-1.103
					c-0.44-0.832-0.284-1.707-0.01-2.293c0.293-0.6,0.727-0.961,1.061-1.109c0.335-0.154,0.545-0.138,0.548-0.116
					c0.053,0.081-0.827,0.248-1.271,1.371c-0.202,0.53-0.277,1.28,0.09,1.911c0.346,0.641,1.206,0.976,2.053,0.827
					c0.848-0.144,1.545-0.749,1.655-1.469c0.133-0.717-0.189-1.399-0.557-1.829C359.725,319.103,358.84,319.243,358.862,319.148z"/>
			</g>
			<g>
				<path style="fill:#263238;" d="M381.433,336.951c-0.005-0.022,0.188-0.107,0.555-0.075c0.364,0.027,0.894,0.221,1.371,0.688
					c0.456,0.46,0.896,1.232,0.761,2.163c-0.117,0.948-1.021,1.739-2.039,1.9c-1.013,0.191-2.131-0.25-2.56-1.103
					c-0.44-0.832-0.285-1.707-0.01-2.293c0.293-0.6,0.727-0.961,1.061-1.109c0.335-0.154,0.545-0.138,0.548-0.116
					c0.053,0.081-0.827,0.248-1.271,1.371c-0.203,0.53-0.277,1.28,0.09,1.911c0.346,0.641,1.206,0.976,2.053,0.827
					c0.848-0.144,1.545-0.749,1.655-1.469c0.133-0.717-0.189-1.399-0.557-1.829C382.296,336.906,381.41,337.045,381.433,336.951z"/>
			</g>
			<g>
				<path style="fill:#263238;" d="M338.473,337.831c-0.005-0.022,0.188-0.107,0.555-0.075c0.364,0.027,0.894,0.221,1.372,0.688
					c0.456,0.46,0.896,1.232,0.761,2.163c-0.117,0.948-1.021,1.738-2.039,1.9c-1.013,0.191-2.131-0.25-2.56-1.103
					c-0.44-0.832-0.285-1.707-0.01-2.294c0.293-0.6,0.727-0.961,1.061-1.109c0.335-0.154,0.545-0.138,0.548-0.116
					c0.053,0.081-0.827,0.248-1.271,1.371c-0.203,0.53-0.277,1.28,0.09,1.911c0.346,0.641,1.206,0.976,2.053,0.827
					c0.848-0.144,1.545-0.749,1.655-1.469c0.133-0.717-0.189-1.399-0.557-1.829C339.336,337.786,338.451,337.925,338.473,337.831z"
					/>
			</g>
		</g>
		<path style="fill:#B78876;" d="M433.387,224.897c-0.27-0.426-2.741,1.034-4.621,2.232c-0.053-0.117-0.107-0.231-0.166-0.341
			c3.382-2.333,5.19-4.482,4.728-5.21c-0.353-0.557-4.475,2.113-6.107,3.201c-0.024-0.044-0.05-0.091-0.073-0.134
			c5.824-5.736,5.697-6.212,5.719-7.699c0.019-1.286-5.39,3.664-7.167,5.324c-0.175-0.235-0.251-0.302-0.251-0.302
			c-0.778-0.775,3.608-5.173,5.192-6.551c1.565-1.362,1.553-2.66,0.374-2.852c-0.804-0.131-5.754,3.976-7.288,5.376
			c-1.534,1.399-5.674,5.314-5.203,1.724c0.471-3.59-0.519-6.527-1.34-7.135c-0.821-0.608-1.966,0.313-1.633,1.387
			c0.269,0.867,0.269,2.453,0.221,3.644c-0.04,0.982-0.24,1.953-0.606,2.865c-0.427,1.063-0.831,1.947-1.194,2.69
			c-4.703,3.289-18.28,12.08-32.537,14.72c-2.575,0.477-28.333-35.897-28.333-35.897l-18.987,12.51c0,0,13.57,17.639,30.997,36.803
			c14.595,16.05,53.544-13.197,62.035-19.906c0.153-0.098,0.309-0.198,0.458-0.294c0.381-0.248,0.664-0.513,0.889-0.785
			c0.2-0.163,0.305-0.25,0.305-0.25l-0.001-0.001C432.089,227.715,433.842,225.614,433.387,224.897z"/>
	</g>
</g>
</svg>
